{"title":"The Last Days On Mars 2013.1080p.BluRay 5.1.x264 . NVEE","uid":12105278,"size":2306190441,"categoryP":"video","categoryS":"hd___movies","magnet":"?xt=urn:btih:c739b5441decf33901b55c19269a97fe755df309&amp;dn=The+Last+Days+On+Mars+2013.1080p.BluRay+5.1.x264+.+NVEE&amp;tr=udp%3A%2F%2Ftracker.openbittorrent.com%3A80&amp;tr=udp%3A%2F%2Fopen.demonii.com%3A1337&amp;tr=udp%3A%2F%2Ftracker.coppersurfer.tk%3A6969&amp;tr=udp%3A%2F%2Fexodus.desync.com%3A6969","seeders":3,"leechers":5,"uploader":".NVEE","files":4,"time":1436441268,"description":"FULL_INFOs \n\nSource : Blu-ray ~ 1080p \n\n \n\nSpoken Language : English \n\nAudio : 6 ~ Channels Only \n\n \nSubs Info : \n\nx3 ~ Multisubs .srt \n\nAll .srt &amp; .idx subs can be turned On/Off \n_____________________________________ \n\n \n &lt;a href=&quot;\nhttp://www.imdb.com/title/tt1709143/&quot; rel=&quot;nofollow&quot; target=&quot;_NEW&quot;&gt;\nhttp://www.imdb.com/title/tt1709143/&lt;/a&gt; \n \nGeneral Metadata \n\nComplete name : The Last Days On.Mars.2013.1080p.BluRay.x264 . NVEE.mp4 \nFormat : MPEG-4 \nFormat profile : Base Media \nCodec ID : isom \nFile size : 2.15 GiB \nDuration : 1h 38mn \nOverall bit rate : 3 122 Kbps \nEncoded date : UTC 2014-02-21 23:42:10 \nTagged date : UTC 2014-02-21 23:42:10 \n\n \nVideo \n\nID : 1 \nFormat : AVC \nFormat/Info : Advanced Video Codec \nFormat profile : &lt;a class=&quot;__cf_email__&quot; href=&quot;/cdn-cgi/l/email-protection&quot; data-cfemail=&quot;85cdece2edc5c9b1abb5&quot;&gt;[email&amp;#160;protected]&lt;/a&gt;&lt;script data-cfhash='f9e31' type=&quot;text/javascript&quot;&gt;\n/* &lt;![CDATA[ */!function(){try{var t=&quot;currentScript&quot;in document?document.currentScript:function(){for(var t=document.getElementsByTagName(&quot;script&quot;),e=t.length;e--;)if(t[e].getAttribute(&quot;data-cfhash&quot;))return t[e]}();if(t&amp;&amp;t.previousSibling){var e,r,n,i,c=t.previousSibling,a=c.getAttribute(&quot;data-cfemail&quot;);if(a){for(e=&quot;&quot;,r=parseInt(a.substr(0,2),16),n=2;a.length-n;n+=2)i=parseInt(a.substr(n,2),16)^r,e+=String.fromCharCode(i);e=document.createTextNode(e),c.parentNode.replaceChild(e,c)}t.parentNode.removeChild(t);}}catch(u){}}()/* ]]&gt; */&lt;/script&gt; \nFormat settings, CABAC : Yes \nFormat settings, ReFrames : 3 frames \nCodec ID : avc1 \nCodec ID/Info : Advanced Video Coding \nDuration : 1h 38mn \nBit rate : 2 545 Kbps \nMaximum bit rate : 14.3 Mbps \nWidth : 1 920 pixels \nHeight : 816 pixels \nDisplay aspect ratio : 2.35:1 \nFrame rate mode : Constant \nFrame rate : 23.976 fps \nColor space : YUV \nChroma subsampling : 4:2:0 \nBit depth : 8 bits \nScan type : Progressive \nBits/(Pixel*Frame) : 0.068 \nStream size : 1.75 GiB (82%) \nWriting library : x264 core 138 r2358 9e941d1 \n\n \nAudio \n\nID : 2 \nFormat : AC-3 \nFormat/Info : Audio Coding 3 \nMode extension : CM (complete main) \nFormat settings, Endianness : Big \nCodec ID : ac-3 \nDuration : 1h 38mn \nBit rate mode : Constant \nBit rate : 576 Kbps \nChannel(s) : 6 channels \nChannel positions : Front: L C R, Side: L R, LFE \nSampling rate : 48.0 KHz \nBit depth : 16 bits \nCompression mode : Lossy \nStream size : 406 MiB (18%) \nLanguage : English \nEncoded date : UTC 2014-02-21 23:52:06 \nTagged date : UTC 2014-02-21 23:53:21 \n\n \nSynopsis \n\nA research crew of eight inhabiting the Tantalus Base outpost on Mars are 19 hours from the completion of a six month mission and a rendezvous with the lander Aurora, which will return them to their main orbiting craft. \nScientist Marko Petrovic (Goran KostiÄ‡) has found samples that may point to life on the planet. Without revealing his discovery he devises a ruse for one last sojourn on the surface. Crewmate Richard Harrington (Tom Cullen) drives Petrovic, in a solar powered rover, to the spot where he had found the sample. Having obtained soil with the biological agent present Petrovic is about to return to the rover when he is swallowed by a fissure. Captain Charles Brunel (Elias Koteas) and crewmate Lauren Dalby (Yusra Warsama) plan to explore the pit to retrieve Marko's body. Dalby remains at the pit but disappears before the team can return with equipment. Led by Brunel and Vincent Campbell (Liev Schrieber) the pit is eventually explored and some sort of life is found to be present and growing. \n\n \n\n \n\n \n\n\n\n\nEnj0y !","torrent":{"xt":"urn:btih:c739b5441decf33901b55c19269a97fe755df309","amp;dn":"The+Last+Days+On+Mars+2013.1080p.BluRay+5.1.x264+.+NVEE","amp;tr":["udp%3A%2F%2Ftracker.openbittorrent.com%3A80","udp%3A%2F%2Fopen.demonii.com%3A1337","udp%3A%2F%2Ftracker.coppersurfer.tk%3A6969","udp%3A%2F%2Fexodus.desync.com%3A6969"],"infoHash":"c739b5441decf33901b55c19269a97fe755df309","infoHashBuffer":{"type":"Buffer","data":[199,57,181,68,29,236,243,57,1,181,92,25,38,154,151,254,117,93,243,9]},"announce":[],"urlList":[]}}